<svg id="Facebook-11" xmlns="http://www.w3.org/2000/svg" width="15.594" height="15.597" viewBox="0 0 15.594 15.597">
  <path id="Facebook-12" d="M349,19.26H335.119a.859.859,0,0,0-.859.859V34a.859.859,0,0,0,.859.859h7.473v-6.04h-2.044V26.468h2.034V24.726a2.833,2.833,0,0,1,3.02-3.111,16.164,16.164,0,0,1,1.815.094v2.1h-1.245c-.98,0-1.168.466-1.168,1.148v1.5h2.332l-.305,2.349h-2.013v6.04h3.977a.859.859,0,0,0,.859-.859V20.119A.859.859,0,0,0,349,19.26Z" transform="translate(-334.26 -19.26)" fill="#fff"/>
</svg>
