<svg id="Instagram-6" xmlns="http://www.w3.org/2000/svg" width="16.03" height="16" viewBox="0 0 16.03 16">
  <path id="Caminho_407" data-name="Caminho 407" d="M26.66,125.116c2.131,0,2.386,0,3.228.047a4.34,4.34,0,0,1,1.483.275,2.654,2.654,0,0,1,1.513,1.513,4.34,4.34,0,0,1,.275,1.483c.04.842.047,1.1.047,3.228s0,2.386-.047,3.228a4.34,4.34,0,0,1-.275,1.483,2.654,2.654,0,0,1-1.513,1.513,4.341,4.341,0,0,1-1.483.275c-.842.04-1.094.047-3.228.047s-2.386,0-3.228-.047a4.341,4.341,0,0,1-1.483-.275,2.655,2.655,0,0,1-1.5-1.517,4.34,4.34,0,0,1-.275-1.483c-.04-.842-.047-1.1-.047-3.228s0-2.386.047-3.228a4.34,4.34,0,0,1,.275-1.483,2.654,2.654,0,0,1,1.5-1.5,4.34,4.34,0,0,1,1.483-.275c.842-.04,1.1-.047,3.228-.047m0-1.44c-2.168,0-2.44,0-3.292.047a5.868,5.868,0,0,0-1.94.372,4.059,4.059,0,0,0-2.349,2.349,5.868,5.868,0,0,0-.372,1.94c-.037.852-.047,1.124-.047,3.292s0,2.44.047,3.292a5.869,5.869,0,0,0,.4,1.909,4.059,4.059,0,0,0,2.349,2.349,5.868,5.868,0,0,0,1.94.372c.852.037,1.124.047,3.292.047s2.44,0,3.292-.047a5.868,5.868,0,0,0,1.94-.372,4.059,4.059,0,0,0,2.349-2.349,5.868,5.868,0,0,0,.372-1.94c.037-.852.047-1.124.047-3.292s0-2.44-.047-3.292a5.868,5.868,0,0,0-.372-1.94,4.059,4.059,0,0,0-2.349-2.349,5.868,5.868,0,0,0-1.94-.372c-.852-.037-1.124-.047-3.292-.047Z" transform="translate(-18.66 -123.66)" fill="#fff"/>
  <path id="Caminho_408" data-name="Caminho 408" d="M34.381,135.28a4.1,4.1,0,1,0,4.1,4.1,4.1,4.1,0,0,0-4.1-4.1Zm0,6.762a2.661,2.661,0,1,1,2.661-2.661h0A2.661,2.661,0,0,1,34.381,142.042Z" transform="translate(-26.381 -131.381)" fill="#fff"/>
  <circle id="Elipse_1" data-name="Elipse 1" cx="0.96" cy="0.96" r="0.96" transform="translate(11.302 2.779)" fill="#fff"/>
</svg>
