<svg id="Twitter-11" xmlns="http://www.w3.org/2000/svg" width="15.983" height="12.98" viewBox="0 0 15.983 12.98">
  <path id="Twitter-12" d="M244.653,234.7a6.659,6.659,0,0,1-1.883.517,3.275,3.275,0,0,0,1.44-1.815,6.532,6.532,0,0,1-2.081.8,3.279,3.279,0,0,0-5.668,2.242,3.423,3.423,0,0,0,.084.748,9.322,9.322,0,0,1-6.758-3.406,3.278,3.278,0,0,0,1.007,4.362,3.28,3.28,0,0,1-1.487-.409v.044a3.279,3.279,0,0,0,2.631,3.211,3.34,3.34,0,0,1-1.48.057,3.275,3.275,0,0,0,3.06,2.275,6.579,6.579,0,0,1-4.067,1.4,6.693,6.693,0,0,1-.782-.047,9.328,9.328,0,0,0,14.359-7.849v-.426A6.649,6.649,0,0,0,244.653,234.7Z" transform="translate(-228.67 -233.16)" fill="#fff"/>
</svg>
