<?xml version="1.0" encoding="utf-8"?>
<!-- Generator: Adobe Illustrator 25.2.3, SVG Export Plug-In . SVG Version: 6.00 Build 0)  -->
<svg version="1.1" id="Camada_1" xmlns="http://www.w3.org/2000/svg" xmlns:xlink="http://www.w3.org/1999/xlink" x="0px" y="0px"
	 viewBox="0 0 512 82" style="enable-background:new 0 0 512 82;" xml:space="preserve">
<style type="text/css">
	.st0{fill:#FFFFFF;}
</style>
<g>
	<path class="st0" d="M-1.48,81.59v-1.23l3.07-1.11c1.64-0.65,2.91-1.45,3.81-2.4c0.9-0.94,1.64-2.27,2.21-3.99L32.93,0.23h10.45
		l24.95,73.13c0.66,1.8,1.39,3.18,2.21,4.12c0.82,0.94,2.09,1.74,3.81,2.4l1.47,0.49v1.23H44.6v-1.23l1.84-0.61
		c1.72-0.65,2.77-1.58,3.13-2.76c0.37-1.19,0.31-2.6-0.18-4.24l-5.78-17.7H16.34l-5.9,17.33c-0.57,1.8-0.76,3.24-0.55,4.3
		c0.2,1.07,1.17,1.93,2.89,2.58l2.7,1.11v1.23H-1.48z M17.2,52.58h25.69L30.47,14.36L17.2,52.58z"/>
	<path class="st0" d="M98.43,81.96L72.13,8.71c-0.57-1.64-1.33-2.93-2.27-3.87c-0.94-0.94-2.23-1.66-3.87-2.15L63.04,1.7V0.47h35.39
		V1.7l-3.81,1.11c-1.89,0.49-2.93,1.35-3.13,2.58c-0.21,1.23-0.02,2.75,0.55,4.55l18.19,53.95l18.31-54.08
		c0.65-1.88,0.96-3.44,0.92-4.67c-0.04-1.23-1-2.09-2.89-2.58l-3.2-0.86V0.47h17.21V1.7l-3.32,0.98c-1.56,0.41-2.66,1.13-3.32,2.15
		c-0.66,1.03-1.27,2.36-1.84,3.99l-24.58,73.13H98.43z"/>
	<path class="st0" d="M127.44,81.59v-1.23l3.07-1.11c1.64-0.65,2.91-1.45,3.81-2.4c0.9-0.94,1.64-2.27,2.21-3.99l25.32-72.63h10.45
		l24.95,73.13c0.66,1.8,1.39,3.18,2.21,4.12c0.82,0.94,2.09,1.74,3.81,2.4l1.47,0.49v1.23h-31.22v-1.23l1.84-0.61
		c1.72-0.65,2.77-1.58,3.13-2.76c0.37-1.19,0.31-2.6-0.18-4.24l-5.78-17.7h-27.28l-5.9,17.33c-0.57,1.8-0.76,3.24-0.55,4.3
		c0.2,1.07,1.17,1.93,2.89,2.58l2.7,1.11v1.23H127.44z M146.12,52.58h25.69l-12.41-38.22L146.12,52.58z"/>
	<path class="st0" d="M208.55,81.59v-1.23l2.58-0.98c1.72-0.66,2.81-1.45,3.26-2.4c0.45-0.94,0.68-2.23,0.68-3.87V8.96
		c0-1.64-0.25-2.95-0.74-3.93c-0.49-0.98-1.56-1.76-3.2-2.33l-2.58-0.98V0.47h31.34V1.7l-2.21,0.98c-1.56,0.57-2.62,1.37-3.2,2.4
		c-0.57,1.03-0.86,2.36-0.86,3.99v70.05h18.93c3.03,0,5.26-0.74,6.7-2.21c1.43-1.48,2.81-3.61,4.12-6.39l4.79-10.32h1.23
		l-1.11,21.38H208.55z"/>
	<path class="st0" d="M273.81,81.59v-1.23l2.46-0.98c1.64-0.57,2.72-1.35,3.26-2.34c0.53-0.98,0.8-2.29,0.8-3.93V8.96
		c0-1.64-0.25-2.95-0.74-3.93c-0.49-0.98-1.6-1.76-3.32-2.33l-2.46-0.98V0.47h31.58V1.7l-2.46,0.98c-1.64,0.57-2.73,1.35-3.26,2.33
		c-0.53,0.98-0.8,2.3-0.8,3.93v64.15c0,1.64,0.26,2.93,0.8,3.87c0.53,0.94,1.62,1.74,3.26,2.4l2.46,0.98v1.23H273.81z"/>
	<path class="st0" d="M310.56,81.59v-1.47L353.2,2.93h-23.35c-2.7,0-4.9,0.61-6.58,1.84c-1.68,1.23-3.18,3.03-4.49,5.41l-5.65,9.95
		h-1.23l0.86-19.66h60.1v1.48l-42.65,77.18h26.79c2.7,0,4.86-0.63,6.45-1.9c1.6-1.27,3.05-3.09,4.36-5.47l5.28-9.83h1.23
		l-0.86,19.66H310.56z"/>
	<path class="st0" d="M379.38,81.59v-1.47l42.65-77.18h-23.35c-2.7,0-4.9,0.61-6.58,1.84c-1.68,1.23-3.18,3.03-4.49,5.41l-5.65,9.95
		h-1.23l0.86-19.66h60.1v1.48l-42.65,77.18h26.79c2.7,0,4.86-0.63,6.45-1.9c1.6-1.27,3.05-3.09,4.36-5.47l5.28-9.83h1.23
		l-0.86,19.66H379.38z"/>
	<path class="st0" d="M448.45,81.59v-1.23l2.83-1.11c1.39-0.57,2.35-1.33,2.89-2.27c0.53-0.94,0.8-2.23,0.8-3.87V8.96
		c0-1.64-0.23-2.93-0.68-3.87c-0.45-0.94-1.46-1.7-3.01-2.27l-2.83-1.11V0.47h58.87l0.74,18.93h-1.23l-5.29-11.55
		c-0.74-1.48-1.52-2.66-2.33-3.56c-0.82-0.9-2.05-1.35-3.69-1.35H473.4v35.52h13.15c1.64,0,2.89-0.43,3.75-1.29
		c0.86-0.86,1.62-2.03,2.27-3.5l2.46-4.92h1.23v22.12h-1.23l-2.46-5.16c-0.74-1.48-1.52-2.64-2.34-3.5
		c-0.82-0.86-2.05-1.29-3.69-1.29H473.4v38.22h24.83c1.64,0,2.91-0.43,3.81-1.29c0.9-0.86,1.64-2.07,2.21-3.62l5.04-11.55h1.23
		l-0.74,18.93H448.45z"/>
</g>
</svg>
